<?xml version="1.0" encoding="UTF-8" standalone="no"?>
<svg xmlns="http://www.w3.org/2000/svg" viewBox="0 0 400 400" width="400" height="400">
  <!-- Background elements -->
  <defs>
    <linearGradient id="bgGradient" x1="0%" y1="0%" x2="100%" y2="100%">
      <stop offset="0%" stop-color="#2c3e50" />
      <stop offset="100%" stop-color="#3498db" />
    </linearGradient>
    <linearGradient id="hexGradient" x1="0%" y1="0%" x2="100%" y2="100%">
      <stop offset="0%" stop-color="#3498db" />
      <stop offset="100%" stop-color="#2ecc71" />
    </linearGradient>
    <filter id="shadowFilter" x="-20%" y="-20%" width="140%" height="140%">
      <feGaussianBlur in="SourceAlpha" stdDeviation="8" />
      <feOffset dx="2" dy="2" result="offsetblur" />
      <feComponentTransfer>
        <feFuncA type="linear" slope="0.3" />
      </feComponentTransfer>
      <feMerge>
        <feMergeNode />
        <feMergeNode in="SourceGraphic" />
      </feMerge>
    </filter>
  </defs>

  <!-- Main hexagon -->
  <polygon 
    points="200,50 340,125 340,275 200,350 60,275 60,125" 
    fill="url(#bgGradient)" 
    filter="url(#shadowFilter)" />

  <!-- Inner hexagon (Nexus symbol) -->
  <polygon 
    points="200,100 280,145 280,235 200,280 120,235 120,145" 
    fill="none" 
    stroke="white" 
    stroke-width="5" />

  <!-- "N" stylized -->
  <path 
    d="M170,150 L170,250 L190,250 L230,180 L230,250 L250,250 L250,150 L230,150 L190,220 L190,150 Z" 
    fill="white" />

  <!-- Data flow lines -->
  <g id="dataFlowLines" stroke="white" stroke-width="2" opacity="0.7">
    <line x1="30" y1="100" x2="120" y2="145" />
    <line x1="30" y1="300" x2="120" y2="235" />
    <line x1="370" y1="100" x2="280" y2="145" />
    <line x1="370" y1="300" x2="280" y2="235" />
    <line x1="200" y1="20" x2="200" y2="100" />
    <line x1="200" y1="380" x2="200" y2="280" />
  </g>

  <!-- Data points (circles) -->
  <g id="dataPoints">
    <circle cx="30" cy="100" r="8" fill="#e74c3c" />
    <circle cx="30" cy="300" r="8" fill="#e74c3c" />
    <circle cx="370" cy="100" r="8" fill="#2ecc71" />
    <circle cx="370" cy="300" r="8" fill="#2ecc71" />
    <circle cx="200" cy="20" r="8" fill="#f39c12" />
    <circle cx="200" cy="380" r="8" fill="#f39c12" />
  </g>

  <!-- Flow arrows -->
  <g id="flowArrows" fill="white">
    <polygon points="90,135 100,145 85,150" />
    <polygon points="90,245 100,235 85,230" />
    <polygon points="310,135 300,145 315,150" />
    <polygon points="310,245 300,235 315,230" />
    <polygon points="200,60 205,75 195,75" />
    <polygon points="200,340 205,325 195,325" />
  </g>
</svg> 