<?xml version="1.0" encoding="UTF-8" standalone="no"?>
<svg width="100" height="40" viewBox="0 0 100 40" fill="none" xmlns="http://www.w3.org/2000/svg">
  <path d="M14.2 8H18.6L32.5 32H27.9L25.1 27.2H7.6L4.8 32H0.2L14.2 8ZM16.4 12.8L9.8 23.6H22.9L16.4 12.8Z" fill="#000000"/>
  <path d="M34.5 8H39.2V27.2H55.7V32H34.5V8Z" fill="#000000"/>
  <path d="M72.9 8L86.7 19.3L72.9 32H67L80.2 20L67 8H72.9Z" fill="#000000"/>
  <path d="M62.6 8L76.3 19.3L62.6 32H56.7L69.8 20L56.7 8H62.6Z" fill="#000000"/>
  <path d="M98.6 8V12.8H89.3V32H84.7V12.8H75.4V8H98.6Z" fill="#000000"/>
</svg> 